<svg xmlns="http://www.w3.org/2000/svg" height="48" viewBox="0 96 960 960" width="48"><path d="M718 754 595 630l66-67 57 57 141-142 66 67-207 209ZM439 557Zm0 412-64-60Q263 808 193 737.5T83 613q-40-54-54.5-98.346Q14 470.308 14 421q0-101.452 67.736-171.726Q149.473 179 249 179q55.932 0 103.966 23.5Q401 226 439 273q44-49 90.034-71.5Q575.068 179 629 179q88 0 151.5 60T858 387h-97q-8-46-41.5-79.5T629 274q-45 0-89.5 30T481 388h-83q-15-53-58-83.5T249 274q-63 0-101.5 42.158Q109 358.317 109 421q0 40 14.94 76.783 14.94 36.784 52.5 83.5Q214 628 278 690.5T439 845q26-25 41.5-39t39.5-34l10.053 10.211q10.052 10.21 22.447 22.289t22.947 22.289L586 837q-24 22-41.5 37.5T498 917l-59 52Z"/></svg>